<svg xmlns="http://www.w3.org/2000/svg" viewBox="0 0 34.049 34.224"><defs><style>.a{opacity:0.803;}.b{fill-rule:evenodd;opacity:0.89;}</style></defs><g class="a" transform="translate(-1629 616.224)"><path class="b" d="M32.014,29.946H21.319a4.278,4.278,0,0,1-8.556,0H2.068a2.055,2.055,0,0,1-1.925-1.5A2.284,2.284,0,0,1,.784,26.1a8.611,8.611,0,0,0,3.422-6.845V12.834a12.834,12.834,0,1,1,25.668,0v6.417A8.611,8.611,0,0,0,33.3,26.1a2.025,2.025,0,0,1,.642,2.353A2.055,2.055,0,0,1,32.014,29.946Z" transform="translate(1628.938 -616.224)"/></g></svg>