<svg xmlns="http://www.w3.org/2000/svg" viewBox="0 0 931.574 684.801"><path d="M0,340c.7-3.9,1.4-7.8,2.2-11.7,6.3-29.9,33.3-51.9,63.8-51.9H865.8c33.5,0,61.6,26,65.1,59.2a66.055,66.055,0,0,1-54,71.8,77.06,77.06,0,0,1-14.4,1.2q-396.6.15-793.3,0c-34.1,0-60.4-21.1-67.4-53.9L0,346Q0,343,0,340Z"/><path d="M0,616c.7-3.7,1.4-7.5,2.2-11.2a65.187,65.187,0,0,1,61.3-51.7c2.2-.1,4.3-.1,6.5-.1q396,0,792-.1c18.2,0,34.4,4.6,47.6,17.1,19.6,18.5,26.5,41.4,18.9,67.3-7.5,25.5-25.2,40.9-51.3,46.3a61.827,61.827,0,0,1-12.9,1q-398.25,0-796.5.2c-31.4,0-60.1-22-66-53.6L0,621C0,619.4,0,617.7,0,616Z"/><path d="M0,63c.7-3.6,1.4-7.1,2.1-10.7A65.359,65.359,0,0,1,65.1.1h5q396,0,792-.1c18,0,34,4.5,47.2,16.8,20,18.5,26.9,41.6,19.2,67.7-7.5,25.7-25.4,41.2-51.8,46.3a64.2,64.2,0,0,1-12.4,1q-398.25,0-796.5.2c-31.3,0-60-21.8-66-53.6C1.2,74.9.6,71.4,0,68Z"/></svg>