<?xml version="1.0" encoding="utf-8"?>
<!-- Generator: Adobe Illustrator 22.1.0, SVG Export Plug-In . SVG Version: 6.00 Build 0)  -->
<svg version="1.1" id="Layer_1" xmlns="http://www.w3.org/2000/svg" xmlns:xlink="http://www.w3.org/1999/xlink" x="0px" y="0px"
	 viewBox="0 0 1563.9 272.2" style="enable-background:new 0 0 1563.9 272.2;" xml:space="preserve">
<style type="text/css">
	.st0{fill:#3DA2DB;}
	.st1{fill:#FFFFFF;}
	.st2{fill:none;}
	.st3{enable-background:new    ;}
	.st4{fill:#ED9210;}
	.st5{fill:#1A2842;}
	.st6{fill:#1C2A44;}
</style>
<g transform="translate(0)">
	<path class="st0" d="M57.3,211.8c4.3-2.3,9-0.8,13.5-1.1c4.6-0.3,9.3-0.1,14.4-0.1c-2.4-4.8-2-9.7-2-14.7v-66
		c0-10,4.5-14.6,14.5-14.6h129.7c9.6,0,14.2,4.5,14.2,14.2v69.8c0,3.7,0.3,7.4-2.4,11.2h20c2,0,4-0.4,5.8,1.1v2.2
		c-1.3,2.4-3.6,2.2-5.8,2.2H62.7C59.7,216.1,56.1,216.8,57.3,211.8z"/>
	<path class="st0" d="M169.5,0c11.1,3,20.7,8,27.6,17.6c14,19.1,9.8,46-9.3,60s-46,9.8-60-9.3s-9.8-46,9.3-60
		c4.8-3.5,10.3-6,16.2-7.3c0.7-0.2,1.4-0.2,1.7-1C159.8,0,164.6,0,169.5,0z"/>
	<path class="st0" d="M57.3,211.8c-0.1,2.1,0.4,3.7,2.9,3.6c1.3-0.1,2.6,0,3.9,0h193.8c2.3,0,4.8,0.7,6.8-1.4
		c-0.1,1.8,0.7,3.5-2.8,3.5c-67.6-0.2-135.2-0.2-202.9-0.1c-5.5,0-1.6-3.9-2.8-5.6H57.3z"/>
	<path class="st0" d="M162.8,111.6c-22.2,0-44.4-0.2-66.4,0.1c-4.9,0.1-5.1-2.2-4.2-5.6c1.7-6.7,5.9-11.8,11.5-15.7
		c8.3-5.9,17.7-7.6,27.7-7.9c2-0.1,3.5,0.9,5,1.9c15.9,11,37,11,52.8-0.1c4.9-3.5,10-1.7,14.9-1c12.7,1.9,23,7.7,27.9,20.4
		c2.7,7.1,2.1,7.8-5.4,7.8L162.8,111.6z"/>
	<path class="st1" d="M161.6,160.7c5,0,9.9,0.1,14.9-0.1c2.9-0.1,4.2,0.4,4.1,3.8c-0.3,7.9-0.1,15.8-0.1,23.8c0,4.7-1.8,7.1-6.9,6.9
		c-8.3-0.2-16.6-0.2-24.9,0c-4.4,0.1-6.6-1.8-6.4-6.2c0.1-2.6-0.3-4.1-3.5-4c-3.6,0.1-5.2-2.1-5.1-5.8c0.1-2.4,0.1-4.8,0-7.2
		c-0.1-3.9,1.4-5.9,5.5-5.9c1.2,0,3.3,0.5,3.1-1.3c-0.6-5.9,3.7-4.1,6.5-4.1C153.2,160.7,157.4,160.7,161.6,160.7z"/>
	<path class="st1" d="M177.2,141.5c-0.2,0.5-0.4,0.9-0.8,1.3c-0.8,0.6-1.9,0.5-2.5-0.2c-8.7-7.1-17.3-6.9-25.8,0.2
		c-0.7,0.7-1.7,0.8-2.5,0.2c-0.7-0.5-0.8-1.5-0.2-2.2c0.1-0.1,0.2-0.2,0.2-0.2c4.1-4.3,9.9-6.7,15.8-6.5c5.7-0.1,11.2,2.2,15.2,6.4
		C176.9,140.6,177,141,177.2,141.5z"/>
	<path class="st1" d="M169.7,147c-0.4,2.3-1.8,2.1-3.2,1.2c-3.6-2.5-7-2.6-10.6,0c-1,0.7-2.1,1-2.9-0.1c-0.7-0.8-0.2-1.6,0.5-2.4
		c2.9-3.8,12.6-3.9,15.5-0.1C169.3,146,169.5,146.6,169.7,147z"/>
	<path class="st1" d="M161.6,155.8c-1.2,0.2-2.3-0.7-2.5-1.9l0,0c-0.2-1.3,0.2-2.2,1.6-2.4s2.6,0.4,2.7,2
		C163.4,154.6,162.7,155.5,161.6,155.8z"/>
	<path class="st1" d="M195.1,42.6c0,18.9-15.5,33.6-34.6,32.8c-17.9-0.8-32.2-17.3-31-35.5c0.3-3.8,1.1-5.1,5.3-3.5
		c11.6,4.5,23,4.1,33.6-3.3c2.9-1.9,6.2-3.3,9.6-4C188.4,26.7,195.1,32,195.1,42.6z"/>
	<path class="st0" d="M142.5,175.8v3.9c0,2.1-1.6,2.6-3.1,2c-4.5-1.7-1.3-5.6-2-8.4c-0.4-1.5-0.8-3.9,2.3-3.8
		c1.7,0.1,2.9,0.3,2.8,2.4C142.4,173.2,142.5,174.5,142.5,175.8z"/>
</g>
<rect x="2.4" y="229.3" class="st2" width="210.2" height="36.6"/>
<g class="st3">
	<path class="st0" d="M75.2,233.6c0,0.8-0.7,1.5-1.6,1.5h-7.1c-0.4,0-0.6,0.1-0.6,0.5v4.9c0,0.3,0.2,0.4,0.6,0.4H72
		c0.8,0,1.6,0.7,1.6,1.5v2.4c0,0.8-0.7,1.5-1.6,1.5h-5.5c-0.3,0-0.5,0.2-0.5,0.5v10.7c0,0.8-0.7,1.5-1.6,1.5h-3
		c-0.9,0-1.6-0.7-1.6-1.5v-26.6c0-0.9,0.8-1.5,1.6-1.5h12.2c0.9,0,1.6,0.7,1.6,1.5V233.6z"/>
	<path class="st0" d="M95.9,257.6c0,0.1,0.1,0.3,0.1,0.4c0,0.6-0.6,1.2-1.3,1.2h-3.2c-0.7,0-1.1-0.4-1.5-1.3l-3.8-10.4
		c-0.1-0.3-0.2-0.4-0.3-0.4h-1.6c-0.3,0-0.4,0.1-0.4,0.5v10.2c0,0.7-0.7,1.4-1.5,1.4h-3c-0.9,0-1.4-0.7-1.4-1.4V231
		c0-0.9,0.5-1.4,1.4-1.4h7.6c2.4,0,4.4,0.7,6,2.2c1.7,1.5,2.5,3.4,2.5,5.7v1.4c0,2.9-1.3,5.2-3.8,6.8L95.9,257.6z M89.6,237.3
		c0-1.3-1.1-2.3-2.5-2.3h-2.8c-0.2,0-0.3,0.1-0.3,0.4v6c0,0.3,0.1,0.4,0.4,0.4h2.8c1.4,0,2.5-1,2.5-2.3V237.3z"/>
	<path class="st0" d="M114.2,257.7c0,0.8-0.7,1.5-1.6,1.5h-12.5c-0.9,0-1.6-0.7-1.6-1.5v-26.6c0-0.9,0.7-1.5,1.6-1.5h12.1
		c0.9,0,1.6,0.7,1.6,1.5v2.5c0,0.8-0.7,1.5-1.6,1.5h-7c-0.4,0-0.6,0.1-0.6,0.5v4.9c0,0.3,0.2,0.4,0.6,0.4h5.3c0.9,0,1.6,0.7,1.6,1.5
		v2.4c0,0.8-0.7,1.5-1.6,1.5h-5.3c-0.4,0-0.6,0.2-0.6,0.5v6c0,0.3,0.2,0.5,0.6,0.5h7.4c0.9,0,1.6,0.7,1.6,1.5V257.7z"/>
	<path class="st0" d="M132.5,257.7c0,0.8-0.7,1.5-1.6,1.5h-12.5c-0.9,0-1.6-0.7-1.6-1.5v-26.6c0-0.9,0.7-1.5,1.6-1.5h12.1
		c0.9,0,1.6,0.7,1.6,1.5v2.5c0,0.8-0.7,1.5-1.6,1.5h-7c-0.4,0-0.6,0.1-0.6,0.5v4.9c0,0.3,0.2,0.4,0.6,0.4h5.3c0.9,0,1.6,0.7,1.6,1.5
		v2.4c0,0.8-0.7,1.5-1.6,1.5h-5.3c-0.4,0-0.6,0.2-0.6,0.5v6c0,0.3,0.2,0.5,0.6,0.5h7.4c0.9,0,1.6,0.7,1.6,1.5V257.7z"/>
	<path class="st0" d="M150.5,257.7c0,0.8-0.6,1.4-1.5,1.4h-12.4c-0.9,0-1.4-0.7-1.4-1.4V231c0-0.8,0.7-1.4,1.4-1.4h3.3
		c0.8,0,1.5,0.6,1.5,1.4v22.2c0,0.3,0.1,0.4,0.5,0.4h7.1c0.9,0,1.5,0.8,1.5,1.6V257.7z"/>
	<path class="st0" d="M171.7,257.6c0.2,0.8-0.5,1.6-1.4,1.6h-3.3c-0.8,0-1.3-0.5-1.5-1.4l-0.9-4.2c-0.1-0.3-0.2-0.5-0.4-0.5h-4.5
		c-0.3,0-0.5,0.2-0.6,0.5l-0.8,4.2c-0.2,1-0.7,1.4-1.6,1.4h-3.3c-0.9,0-1.5-0.8-1.4-1.6l5.5-26.6c0.2-0.9,0.7-1.4,1.5-1.4h5.3
		c0.8,0,1.3,0.5,1.5,1.4L171.7,257.6z M161.6,238.1l-1.5,8.7c0,0.3,0.1,0.5,0.3,0.5h2.4c0.3,0,0.4-0.1,0.4-0.4L161.6,238.1z"/>
	<path class="st0" d="M192.6,257.7c0,0.8-0.7,1.4-1.5,1.4h-2.9c-0.7,0-1.2-0.4-1.6-1.2l-6.6-14.3v14.1c0,0.8-0.7,1.4-1.6,1.4h-3
		c-0.9,0-1.4-0.7-1.4-1.4v-26.7c0-0.9,0.6-1.5,1.4-1.5h3c0.8,0,1.3,0.4,1.7,1.3l6.4,13.8v-13.6c0-0.9,0.7-1.5,1.6-1.5h2.9
		c0.9,0,1.5,0.7,1.5,1.5V257.7z"/>
	<path class="st0" d="M213.6,251.1c0,2.3-0.9,4.4-2.6,6c-1.7,1.7-3.8,2.5-6.2,2.5h-0.3c-2.4,0-4.5-0.8-6.2-2.5
		c-1.7-1.7-2.6-3.7-2.6-6v-13.4c0-2.3,0.9-4.3,2.6-6c1.7-1.7,3.8-2.5,6.2-2.5h0.3c2.4,0,4.5,0.8,6.1,2.5c1.7,1.7,2.6,3.7,2.6,6v1.2
		c0,0.7-0.7,1.5-1.6,1.5h-3.1c-0.9,0-1.6-0.7-1.6-1.5v-0.4c0-2-1.1-3.5-2.5-3.5c-1.4,0-2.7,1.6-2.7,3.5v12.1c0,2,1.3,3.5,2.7,3.5
		c1.4,0,2.7-1.5,2.7-3.5v-1c0-1,0.5-1.5,1.5-1.5h3.1c0.9,0,1.6,0.6,1.6,1.5V251.1z"/>
	<path class="st0" d="M232.4,257.7c0,0.8-0.7,1.5-1.6,1.5h-12.5c-0.9,0-1.6-0.7-1.6-1.5v-26.6c0-0.9,0.7-1.5,1.6-1.5h12.1
		c0.9,0,1.6,0.7,1.6,1.5v2.5c0,0.8-0.7,1.5-1.6,1.5h-7c-0.4,0-0.6,0.1-0.6,0.5v4.9c0,0.3,0.2,0.4,0.6,0.4h5.3c0.9,0,1.6,0.7,1.6,1.5
		v2.4c0,0.8-0.7,1.5-1.6,1.5h-5.3c-0.4,0-0.6,0.2-0.6,0.5v6c0,0.3,0.2,0.5,0.6,0.5h7.4c0.9,0,1.6,0.7,1.6,1.5V257.7z"/>
	<path class="st0" d="M253.1,257.6c0,0.1,0.1,0.3,0.1,0.4c0,0.6-0.6,1.2-1.3,1.2h-3.2c-0.7,0-1.1-0.4-1.5-1.3l-3.8-10.4
		c-0.1-0.3-0.2-0.4-0.3-0.4h-1.6c-0.3,0-0.4,0.1-0.4,0.5v10.2c0,0.7-0.7,1.4-1.5,1.4h-3c-0.9,0-1.4-0.7-1.4-1.4V231
		c0-0.9,0.5-1.4,1.4-1.4h7.6c2.4,0,4.4,0.7,6,2.2c1.7,1.5,2.5,3.4,2.5,5.7v1.4c0,2.9-1.3,5.2-3.8,6.8L253.1,257.6z M246.7,237.3
		c0-1.3-1.1-2.3-2.5-2.3h-2.8c-0.2,0-0.3,0.1-0.3,0.4v6c0,0.3,0.1,0.4,0.4,0.4h2.8c1.4,0,2.5-1,2.5-2.3V237.3z"/>
</g>
<rect x="1260.2" y="229.3" class="st2" width="276.7" height="36.6"/>
<g class="st3">
	<path class="st4" d="M1279.8,251.4c0,2.3-0.8,4.2-2.5,5.8c-1.7,1.6-3.6,2.4-6,2.4h-1.1c-2.3,0-4.3-0.8-6-2.4
		c-1.7-1.6-2.5-3.6-2.5-5.8v-14.1c0-2.3,0.8-4.2,2.5-5.8s3.7-2.4,6-2.4h1.1c2.3,0,4.3,0.8,6,2.4s2.5,3.5,2.5,5.8V251.4z
		 M1273.5,238.2c0-1.9-1.3-3.3-2.6-3.3s-2.7,1.4-2.7,3.3v12.4c0,1.9,1.3,3.3,2.7,3.3c1.4,0,2.6-1.4,2.6-3.3V238.2z"/>
	<path class="st4" d="M1300.5,239.4c0,2.3-0.8,4.2-2.4,5.8c-1.6,1.6-3.6,2.4-5.9,2.4h-2.6c-0.3,0-0.5,0.1-0.5,0.5v9.8
		c0,0.8-0.7,1.4-1.6,1.4h-3.2c-0.9,0-1.4-0.7-1.4-1.4V231c0-0.9,0.5-1.4,1.4-1.4h7.8c2.3,0,4.3,0.8,5.9,2.4c1.6,1.6,2.4,3.5,2.4,5.8
		V239.4z M1294.2,237.4c0-1.3-1.1-2.3-2.5-2.3h-2c-0.4,0-0.6,0.1-0.6,0.4v6.3c0,0.3,0.2,0.4,0.6,0.4h2c1.4,0,2.5-1.1,2.5-2.4V237.4z
		"/>
	<path class="st4" d="M1320.7,250.7c0,2.3-0.9,4.3-2.6,6c-1.7,1.7-3.8,2.5-6.2,2.5h-7.4c-0.9,0-1.6-0.7-1.6-1.5v-26.6
		c0-0.9,0.7-1.5,1.6-1.5h7.4c2.4,0,4.5,0.8,6.2,2.5c1.7,1.7,2.6,3.7,2.6,6V250.7z M1314.5,238.5c0-1.9-1.6-3.5-3.7-3.5h-1.1
		c-0.4,0-0.6,0.1-0.6,0.5v17.7c0,0.3,0.2,0.5,0.6,0.5h1.1c2,0,3.7-1.6,3.7-3.5V238.5z"/>
	<path class="st4" d="M1341.8,257.6c0,0.1,0.1,0.3,0.1,0.4c0,0.6-0.6,1.2-1.3,1.2h-3.2c-0.7,0-1.1-0.4-1.5-1.3l-3.8-10.4
		c-0.1-0.3-0.2-0.4-0.3-0.4h-1.6c-0.3,0-0.4,0.1-0.4,0.5v10.2c0,0.7-0.7,1.4-1.5,1.4h-3c-0.9,0-1.4-0.7-1.4-1.4V231
		c0-0.9,0.5-1.4,1.4-1.4h7.6c2.4,0,4.4,0.7,6,2.2c1.7,1.5,2.5,3.4,2.5,5.7v1.4c0,2.9-1.3,5.2-3.8,6.8L1341.8,257.6z M1335.5,237.3
		c0-1.3-1.1-2.3-2.5-2.3h-2.8c-0.2,0-0.3,0.1-0.3,0.4v6c0,0.3,0.1,0.4,0.4,0.4h2.8c1.4,0,2.5-1,2.5-2.3V237.3z"/>
	<path class="st4" d="M1363.2,257.6c0.2,0.8-0.5,1.6-1.4,1.6h-3.3c-0.8,0-1.3-0.5-1.5-1.4l-0.9-4.2c-0.1-0.3-0.2-0.5-0.4-0.5h-4.5
		c-0.3,0-0.5,0.2-0.6,0.5l-0.8,4.2c-0.2,1-0.7,1.4-1.6,1.4h-3.3c-0.9,0-1.5-0.8-1.4-1.6l5.5-26.6c0.2-0.9,0.7-1.4,1.5-1.4h5.3
		c0.8,0,1.3,0.5,1.5,1.4L1363.2,257.6z M1353.1,238.1l-1.5,8.7c0,0.3,0.1,0.5,0.3,0.5h2.4c0.3,0,0.4-0.1,0.4-0.4L1353.1,238.1z"/>
	<path class="st4" d="M1383.4,251.1c0,2.3-0.9,4.4-2.6,6c-1.7,1.7-3.8,2.5-6.2,2.5h-0.3c-2.4,0-4.5-0.8-6.2-2.5
		c-1.7-1.7-2.6-3.7-2.6-6v-13.4c0-2.3,0.9-4.3,2.6-6c1.7-1.7,3.8-2.5,6.2-2.5h0.3c2.4,0,4.5,0.8,6.1,2.5c1.7,1.7,2.6,3.7,2.6,6v1.2
		c0,0.7-0.7,1.5-1.6,1.5h-3.1c-0.9,0-1.6-0.7-1.6-1.5v-0.4c0-2-1.1-3.5-2.5-3.5c-1.4,0-2.7,1.6-2.7,3.5v12.1c0,2,1.3,3.5,2.7,3.5
		s2.7-1.5,2.7-3.5v-1c0-1,0.5-1.5,1.5-1.5h3.1c0.9,0,1.6,0.6,1.6,1.5V251.1z"/>
	<path class="st4" d="M1403.9,257.7c0,0.8-0.7,1.5-1.6,1.5h-3.1c-0.9,0-1.6-0.8-1.6-1.5v-9.8c0-0.3-0.2-0.5-0.6-0.5h-4
		c-0.3,0-0.5,0.2-0.5,0.5v9.8c0,0.7-0.7,1.5-1.6,1.5h-3.1c-0.9,0-1.6-0.7-1.6-1.5v-26.6c0-0.9,0.7-1.5,1.6-1.5h3.1
		c0.9,0,1.6,0.7,1.6,1.5v10c0,0.3,0.1,0.5,0.5,0.5h4c0.4,0,0.6-0.2,0.6-0.5v-10c0-0.8,0.7-1.5,1.6-1.5h3.1c0.9,0,1.6,0.7,1.6,1.5
		V257.7z"/>
	<path class="st4" d="M1425,233.4c0,0.9-0.7,1.5-1.6,1.5h-4.6c-0.3,0-0.5,0.1-0.5,0.4v22.4c0,0.8-0.6,1.4-1.4,1.4h-3
		c-0.9,0-1.5-0.7-1.5-1.4v-22.4c0-0.3-0.1-0.4-0.4-0.4h-4.6c-0.9,0-1.5-0.6-1.5-1.5V231c0-0.8,0.7-1.4,1.5-1.4h16
		c0.8,0,1.6,0.6,1.6,1.4V233.4z"/>
	<path class="st4" d="M1445,257.7c0,0.8-0.7,1.5-1.6,1.5h-0.6c-0.7,0-1.3-0.6-1.7-1.8c0,0,0,0.1,0,0.1c-1.1,1.4-2.6,2.1-4.6,2.1
		h-0.7c-2.6,0-4.7-0.9-6.4-2.5c-1.6-1.7-2.4-3.7-2.4-6.1v-13.3c0-2.3,0.9-4.3,2.6-6c1.7-1.7,3.8-2.5,6.2-2.5h0.3
		c2.4,0,4.5,0.8,6.1,2.5c1.7,1.7,2.6,3.7,2.6,6v1.2c0,0.9-0.7,1.5-1.6,1.5h-2.8c-0.9,0-1.6-0.8-1.6-1.5v-0.4c0-2-1.3-3.5-2.8-3.5
		c-1.5,0-2.8,1.6-2.8,3.5v11.9c0,2.1,1,3.4,2.8,3.4c1.9,0,2.8-1.1,2.8-3.4v-1.2c0-0.3-0.2-0.5-0.5-0.5h-1.5c-0.8,0-1.6-0.7-1.6-1.6
		v-1.9c0-0.8,0.7-1.5,1.6-1.5h6.6c0.9,0,1.6,0.8,1.6,1.5V257.7z"/>
	<path class="st4" d="M1463.8,257.7c0,0.8-0.7,1.5-1.6,1.5h-12.5c-0.9,0-1.6-0.7-1.6-1.5v-26.6c0-0.9,0.7-1.5,1.6-1.5h12.1
		c0.9,0,1.6,0.7,1.6,1.5v2.5c0,0.8-0.7,1.5-1.6,1.5h-7c-0.4,0-0.6,0.1-0.6,0.5v4.9c0,0.3,0.2,0.4,0.6,0.4h5.3c0.9,0,1.6,0.7,1.6,1.5
		v2.4c0,0.8-0.7,1.5-1.6,1.5h-5.3c-0.4,0-0.6,0.2-0.6,0.5v6c0,0.3,0.2,0.5,0.6,0.5h7.4c0.9,0,1.6,0.7,1.6,1.5V257.7z"/>
	<path class="st4" d="M1478.8,257.8c-0.2,0.9-0.7,1.4-1.6,1.4h-4.4c-0.8,0-1.3-0.4-1.5-1.4l-5.7-26.5c0-0.1,0-0.3,0-0.4
		c0-0.9,0.4-1.4,1.3-1.4h3.1c0.9,0,1.3,0.4,1.5,1.2l3.6,17.7l3.6-17.7c0.2-0.8,0.7-1.2,1.6-1.2h3.1c0.9,0,1.3,0.4,1.3,1.2
		c0,0.1,0,0.3-0.1,0.5L1478.8,257.8z"/>
	<path class="st4" d="M1502.5,257.7c0,0.8-0.7,1.5-1.6,1.5h-12.5c-0.9,0-1.6-0.7-1.6-1.5v-26.6c0-0.9,0.7-1.5,1.6-1.5h12.1
		c0.9,0,1.6,0.7,1.6,1.5v2.5c0,0.8-0.7,1.5-1.6,1.5h-7c-0.4,0-0.6,0.1-0.6,0.5v4.9c0,0.3,0.2,0.4,0.6,0.4h5.3c0.9,0,1.6,0.7,1.6,1.5
		v2.4c0,0.8-0.7,1.5-1.6,1.5h-5.3c-0.4,0-0.6,0.2-0.6,0.5v6c0,0.3,0.2,0.5,0.6,0.5h7.4c0.9,0,1.6,0.7,1.6,1.5V257.7z"/>
	<path class="st4" d="M1523.2,257.6c0,0.1,0.1,0.3,0.1,0.4c0,0.6-0.6,1.2-1.3,1.2h-3.2c-0.7,0-1.1-0.4-1.5-1.3l-3.8-10.4
		c-0.1-0.3-0.2-0.4-0.3-0.4h-1.6c-0.3,0-0.4,0.1-0.4,0.5v10.2c0,0.7-0.7,1.4-1.5,1.4h-3c-0.9,0-1.4-0.7-1.4-1.4V231
		c0-0.9,0.5-1.4,1.4-1.4h7.6c2.4,0,4.4,0.7,6,2.2c1.7,1.5,2.5,3.4,2.5,5.7v1.4c0,2.9-1.3,5.2-3.8,6.8L1523.2,257.6z M1516.8,237.3
		c0-1.3-1.1-2.3-2.5-2.3h-2.8c-0.2,0-0.3,0.1-0.3,0.4v6c0,0.3,0.1,0.4,0.4,0.4h2.8c1.4,0,2.5-1,2.5-2.3V237.3z"/>
</g>
<g transform="translate(340.356 109.323)">
	<path class="st0" d="M201.8,35.7c-2-0.1-3.4-0.2-4.6-0.2H28.9c-3.5,0-5.9-1.8-6.7-4.8c-0.9-3,0.2-6.1,3-7.3c1.6-0.7,3.4-1,5.1-1
		c13.2-0.1,153,0,166.2-0.1c1.4,0,3-0.2,5.4-0.4c-3.7-3.8-6.8-6.8-9.8-10c-2-2-3-4.4-2.1-7.2c1-3.4,4.7-5.4,8.1-4.4
		c1,0.3,1.9,0.8,2.7,1.6c7.6,7.3,15,14.8,22.4,22.3c3,3.1,2.8,6.7-0.3,9.7c-7.1,7.2-14.4,14.5-21.6,21.6c-2.5,2.7-6.8,2.9-9.5,0.3
		l0,0c-2.7-2.6-2.7-6.6,0.1-9.5c2.4-2.6,5-5,7.5-7.5C199.9,38,200.6,37.2,201.8,35.7z"/>
</g>
<g transform="translate(340.154 159.772)">
	<path class="st0" d="M45.6,21.9c2,0.1,3.4,0.2,4.6,0.2h168.2c3.5,0,5.9,1.8,6.7,4.8c0.9,3-0.2,6.1-3,7.3c-1.6,0.7-3.4,1-5.1,1
		c-13.2,0.1-153,0-166.2,0.1c-1.4,0-3,0.2-5.4,0.4c3.7,3.8,6.8,6.8,9.8,10c2,2,3,4.4,2.1,7.2c-1,3.4-4.7,5.4-8.1,4.4
		c-1-0.3-1.9-0.8-2.7-1.6c-7.6-7.3-15-14.8-22.4-22.3c-3-3.1-2.8-6.7,0.3-9.7C31.6,16.5,38.8,9.3,46,2.1c2.5-2.7,6.8-2.9,9.5-0.3
		l0,0c2.7,2.6,2.7,6.6-0.1,9.5c-2.4,2.6-5,5-7.5,7.5C47.2,20,46.5,21,45.6,21.9z"/>
</g>
<g transform="translate(675.761 3.519)">
	<g transform="translate(0)">
		<path class="st5" d="M58,152.2c-4.8,6.8-9.3,13.1-13.8,19.4c-2.3,3.2-5,6.2-9.5,5c-4.4-1.2-5.9-5-6-9c-0.2-12.2-0.4-24.5,0.2-36.6
			c0.5-10.9,6.5-19.7,13.1-27.8c3.1-3.9,4.3-7.9,4.7-13c2.4-32.5,15.3-60.8,35-86.4c3.9-5,7.6-5.1,11.5-0.1
			c19.7,26,32.8,54.5,35.1,87.3c0.3,3.7,0.4,7,3.1,9.9c12.8,13.8,16.6,30.5,14.9,48.8c-0.5,5.6,0,11.3-0.1,17
			c-0.1,4.3-1.1,8.5-6,9.8c-4.5,1.3-7.2-1.8-9.5-5c-4.5-6.3-9-12.6-13.8-19.4c-5.4,6.4-6.3,15.2-14.8,19.3
			c-4.1,1.9,0.6,13.8,5.6,15.4c10.8,3.5,18.1,10.4,19.4,22c0.5,4.8,2.2,6.1,6.7,7.2c14.8,3.6,24.3,14.5,26.1,28.3
			c0.9,6.4-1.1,9.5-8,9.5c-42.9-0.1-85.8-0.1-128.7,0c-7.1,0-8.7-3.4-7.9-9.5c1.6-13.8,11.4-25,26-28.4c4.6-1.1,6.1-2.6,6.7-7.1
			c1.3-11.6,8.6-18.6,19.4-22c5.3-1.7,9.6-14.3,5.1-16C63.7,167.4,63.5,158.7,58,152.2z"/>
		<path class="st0" d="M85.6,16.7c1.4-3.7,2.8-1.7,4.1,0.1C122,64,126.7,107.9,103,155c-0.9,1.8-1.6,4.3-4.1,4.1
			c-8.4-0.5-17,2.1-25.3-1.3c10.7-2.3,11.7-9.7,11.3-19.1c-0.5-11.5-1.2-23,0.7-34.4c1.2-3.5,4.5-4.3,7.2-6
			c10.5-6.3,10.6-17.3,0.2-24c-2.7-1.7-6.2-2.3-7.4-5.8C84.1,51.3,84.1,34,85.6,16.7z"/>
		<path class="st0" d="M87.4,102.7c0,13.9,0.1,27.8,0,41.7c-0.1,16,1.6,13.2-13.7,13.6C48,113.9,52.6,59.2,85.6,16.7
			c3.4,3.6,1.6,7.9,1.7,11.9c0.2,13.9,0.1,27.8,0.1,41.7c-1,2.1-3,2.7-4.8,3.8c-11.4,6.8-11.5,18.3,0,25
			C84.3,100,86.3,100.5,87.4,102.7z"/>
		<path class="st4" d="M89.3,170.9c3,10.4,0.6,21.1,1.4,31.7c0.3,3.7-1.2,8.5,4.6,9.1c6.6,0.6,5.9-4.7,5.9-8.7c0-7,3.6-6.8,7.8-3.9
			c6.2,4.1,9.5,9.8,7.3,17.6c-2,7.2,0.6,10,8,9.4c9.2-0.9,16.3,2.9,21.3,10.4c3.2,4.7,2.8,7.2-4,7.2c-25.4-0.2-50.6,0-76-0.1
			c-12.2,0-24.4-0.4-36.5-0.6c2.4-4.2,6.7-3.4,10.3-3.5c12-0.3,23.8-0.3,35.8,0c6.8,0.1,9.7-2.7,9.5-9.5c-0.5-14.6,1.4-29.1,1-43.7
			C85.6,180.9,85.3,175.4,89.3,170.9z"/>
		<path class="st4" d="M89.3,170.9c-3.3,20.9-1.7,41.9-1.7,63c0,6.8-2.3,8.4-8.8,8.4c-16.6,0.1-33.1-1.2-49.7,0.7
			c-2.9,0.1-2.4-1.6-1.7-3.5c3.1-8.2,11.7-13.9,22.1-13.4c8,0.4,11.4-1.7,8.9-10.1c-1.5-5.2,0.1-10,3.8-14c2.4-2.6,5.4-5.4,9.2-4.4
			c4,1.1,1.8,5,2.1,7.7c0.4,3.7,1.2,6.6,5.5,6.6c4.4,0,5.2-3,5.2-6.7v-29.4C84.1,172.4,83.9,168.6,89.3,170.9z"/>
		<path class="st0" d="M47.2,115.7c5.3,15.1,10.3,30.6-7.1,41.4C36.2,137.8,38.6,123.5,47.2,115.7z"/>
		<path class="st0" d="M128,114.8c11.4,13.2,6.6,28.3,7.7,42.7C117.7,145.9,122,130.8,128,114.8z"/>
		<path class="st6" d="M87.4,102.7c-10.9-3-15.7-8-15.7-16.2c0-8.3,4.9-13.3,15.7-16.2c10.8,2.7,15.8,7.8,15.8,16.2
			C103.2,94.7,98.4,99.6,87.4,102.7z"/>
		<path class="st0" d="M87.1,81.2c3,0.3,5,1.9,5.2,4.9c0.3,2.6-1.7,5-4.3,5.3c-0.1,0-0.3,0-0.4,0c-3,0.2-5-1.8-5.2-4.8
			C82.1,83.6,84.2,81.9,87.1,81.2z"/>
	</g>
</g>
<g transform="translate(952.402 109.323)">
	<g transform="translate(0)">
		<path class="st4" d="M194.8,35.7c-2-0.1-3.4-0.2-4.6-0.2H21.9c-3.5,0-5.9-1.8-6.7-4.8c-0.9-3,0.2-6.1,3-7.3c1.6-0.7,3.4-1,5.1-1
			c13.2-0.1,153,0,166.2-0.1c1.4,0,3-0.2,5.4-0.4c-3.7-3.8-6.8-6.8-9.8-10c-2-2-3-4.4-2.1-7.2c1-3.4,4.7-5.4,8.1-4.4
			c1,0.3,1.9,0.8,2.7,1.6c7.6,7.3,15,14.8,22.4,22.3c3,3.1,2.8,6.7-0.3,9.7c-7.1,7.2-14.4,14.5-21.6,21.6c-2.5,2.7-6.8,2.9-9.5,0.3
			l0,0c-2.7-2.6-2.7-6.6,0.1-9.5c2.4-2.6,5-5,7.5-7.5C192.9,38,193.6,37.2,194.8,35.7z"/>
	</g>
</g>
<g transform="translate(952.199 159.772)">
	<g transform="translate(0)">
		<path class="st4" d="M38.6,21.9c2,0.1,3.4,0.2,4.6,0.2h168.2c3.5,0,5.9,1.8,6.7,4.8c0.9,3-0.2,6.1-3,7.3c-1.6,0.7-3.4,1-5.1,1
			c-13.2,0.1-153,0-166.2,0.1c-1.4,0-3,0.2-5.4,0.4c3.7,3.8,6.8,6.8,9.8,10c2,2,3,4.4,2.1,7.2c-1,3.4-4.7,5.4-8.1,4.4
			c-1-0.3-1.9-0.8-2.7-1.6c-7.6-7.3-15-14.8-22.4-22.3c-3-3.1-2.8-6.7,0.3-9.7C24.6,16.5,31.8,9.3,39,2.1c2.5-2.7,6.8-2.9,9.5-0.3
			l0,0c2.7,2.6,2.7,6.6-0.1,9.5c-2.4,2.6-5,5-7.5,7.5C40.5,19.6,39.8,20.5,38.6,21.9z"/>
	</g>
</g>
<g transform="translate(1324.06 34.231)">
	<path class="st4" d="M124.6,77.1c-4.1,13.7-12.5,20.3-24.9,20.6C87.2,98,78.3,91.6,73.9,79.1c-4.3,12.3-13,18.7-25.3,18.6
		c-12.5,0-21.2-6.6-24.8-18.7c-1.4-0.2-1.5,0.7-1.7,1.3c-5.2,14-18.8,20.7-32.4,16c-13.5-4.6-20.2-18-14.9-32.8
		c6.3-17.6,13.7-34.9,20.8-52.3C-1.2,3.7,4.4-0.1,13.2,0c40.7,0.3,81.4,0.3,122.2,0c7.5,0,12.8,2.8,15.8,9.3
		c8.5,18.6,16,37.7,22.5,57.2c4.5,13.6-4.1,26.2-16.1,30.1c-13.4,4.2-26.5-2.4-31.7-15.8C125.6,80.1,125.4,79.5,124.6,77.1z"/>
	<path class="st4" d="M4.6,156c6.7-7.8,12.3-14.4,17.8-21c1.8-2.4,4.7-3.7,7.6-3.5c28.8,0.1,57.7,0.2,86.5,0c3.7,0,5.8,1.2,7.7,4.1
		c4.9,7.6,10.2,15.1,15.3,22.7c0.7,1,1.2,2.6,2.5,2c0.9-0.3,1.5-1.7,1.7-2.8c0.3-1.7,0.4-3.5,0.4-5.3c0-15.3,0.2-30.6-0.1-45.9
		c-0.1-4.2,0.8-5.9,5.5-5.7c9.9,0.3,9.9,0,9.9,10c0,16.3,0.1,32.6,0,48.9c-0.1,11.7-6.9,18.5-18.5,18.5H8.1
		c-11.3,0-18.3-6.8-18.4-17.9c-0.2-18.3,0.1-36.5-0.1-54.9c0-3.8,1.2-4.6,4.7-4.6c10.5,0.1,10.5-0.1,10.5,10.1
		C4.6,125.2,4.6,139.6,4.6,156z"/>
</g>
<image style="display:none;overflow:visible;opacity:0.25;enable-background:new    ;" width="2260" height="564" xlink:href="../../../../Schermafbeelding 2018-05-17 om 14.40.21.png"  transform="matrix(0.7291 0 0 0.7266 -66.2762 -57.568)">
</image>
</svg>
