<?xml version="1.0" encoding="utf-8"?>
<!-- Generator: Adobe Illustrator 22.1.0, SVG Export Plug-In . SVG Version: 6.00 Build 0)  -->
<svg version="1.1" id="Layer_1" xmlns="http://www.w3.org/2000/svg" xmlns:xlink="http://www.w3.org/1999/xlink" x="0px" y="0px"
	 viewBox="0 0 134.8 47.7" style="enable-background:new 0 0 134.8 47.7;" xml:space="preserve">
<style type="text/css">
	.st0{fill:#1A2842;}
	.st1{fill:#3DA2DB;}
	.st2{fill:#ED9210;}
	.st3{fill:#1C2A44;}
	.st4{enable-background:new    ;}
</style>
<g transform="translate(-11.179)">
	<g transform="translate(11.179 0)">
		<path class="st0" d="M8.1,28.6c-0.9,1.3-1.7,2.5-2.6,3.6c-0.4,0.6-0.9,1.2-1.8,0.9C3,33,2.5,32.3,2.6,31.5c0-2.3-0.1-4.6,0-6.9
			c0.2-2,1.1-3.8,2.5-5.2C5.7,18.7,6,17.8,6,16.9C6.5,11,8.8,5.3,12.6,0.7c0.7-0.9,1.4-0.9,2.2,0c3.7,4.9,6.2,10.2,6.6,16.4
			c0,0.7,0.2,1.3,0.6,1.9c2.4,2.6,3.1,5.7,2.8,9.2c-0.1,1,0,2.1,0,3.2c0,0.8-0.2,1.6-1.1,1.9c-0.9,0.2-1.3-0.3-1.8-0.9
			c-0.8-1.2-1.7-2.4-2.6-3.6c-1,1.2-1.2,2.9-2.8,3.6c-0.8,0.4,0.1,2.6,1,2.9c2,0.4,3.5,2.1,3.6,4.1c0.1,0.9,0.4,1.1,1.2,1.3
			c2.6,0.5,4.6,2.7,4.9,5.3c0.2,1.2-0.2,1.8-1.5,1.8c-8.1,0-16.1,0-24.2,0c-1.3,0-1.6-0.6-1.5-1.8c0.3-2.6,2.3-4.8,4.9-5.3
			c0.9-0.2,1.1-0.5,1.2-1.3c0.2-2,1.7-3.7,3.7-4.1c1-0.3,1.8-2.7,1-3C9.1,31.5,9.1,29.8,8.1,28.6z"/>
		<path class="st1" d="M13.3,3.1c0.3-0.7,0.5-0.3,0.8,0c6.1,8.9,6.9,17.1,2.5,26c-0.2,0.3-0.3,0.8-0.8,0.8c-1.6-0.1-3.2,0.4-4.7-0.2
			c2-0.4,2.2-1.8,2.1-3.6c-0.2-2.2-0.1-4.3,0.1-6.5c0.2-0.6,0.8-0.8,1.4-1.1c2-1.2,2-3.3,0-4.5c-0.5-0.3-1.2-0.4-1.4-1.1
			C13,9.6,13,6.4,13.3,3.1z"/>
		<path class="st1" d="M13.6,19.3v7.8c0,3,0.3,2.5-2.6,2.6c-4.8-8.3-4-18.6,2.3-26.6c0.6,0.7,0.3,1.5,0.3,2.2c0,2.6,0,5.2,0,7.8
			c-0.2,0.4-0.6,0.5-0.9,0.7c-2.2,1.3-2.2,3.4,0,4.7C13,18.8,13.5,18.9,13.6,19.3z"/>
		<path class="st2" d="M14,32.2c0.6,2,0.1,4,0.3,6c0.1,0.7-0.2,1.6,0.9,1.7c1.2,0.1,1.1-0.9,1.1-1.6c0-1.3,0.7-1.3,1.5-0.7
			c1.2,0.6,1.8,2,1.4,3.3c-0.4,1.4,0.1,1.9,1.5,1.7c1.6-0.2,3.2,0.6,4,2c0.6,0.9,0.5,1.4-0.7,1.3c-4.8,0-9.5,0-14.3,0
			c-2.3,0-4.6-0.1-6.9-0.1C3.2,44.9,4,45,4.7,45c2.3,0,4.5,0,6.7,0c1.3,0,1.8-0.5,1.8-1.8c-0.1-2.8,0.3-5.5,0.2-8.2
			C13.1,34,13.4,33,14,32.2z"/>
		<path class="st2" d="M14,32.2c-0.6,3.9-0.3,7.9-0.3,11.8c0,1.3-0.4,1.6-1.6,1.6c-3.1-0.1-6.2-0.1-9.3,0.1c-0.5,0-0.5-0.3-0.3-0.6
			c0.7-1.7,2.4-2.7,4.1-2.5c1.5,0.1,2.1-0.3,1.6-1.9c-0.3-0.9,0-1.9,0.7-2.6c0.5-0.5,1-1,1.7-0.8c0.7,0.2,0.3,0.9,0.4,1.4
			c0.1,0.7,0.2,1.2,1,1.2c0.8,0,1-0.6,1-1.2v-5.5C13,32.4,13,31.7,14,32.2z"/>
		<path class="st1" d="M6.1,21.8c1,2.9,2,5.8-1.3,7.8C4,25.9,4.5,23.2,6.1,21.8z"/>
		<path class="st1" d="M21.3,21.6c2.2,2.5,1.2,5.3,1.4,8C19.3,27.4,20.1,24.6,21.3,21.6z"/>
		<path class="st3" d="M13.6,19.3c-2.1-0.6-3-1.5-3-3.1s0.9-2.5,3-3.1c2,0.5,3,1.5,3,3C16.6,17.8,15.7,18.7,13.6,19.3z"/>
		<path class="st1" d="M13.6,15.3c0.5,0,0.9,0.4,1,0.9c0,0.5-0.4,1-0.9,1c-0.5,0-1-0.4-1-0.9C12.6,15.7,13,15.4,13.6,15.3z"/>
	</g>
	<g class="st4">
		<path class="st0" d="M59.9,32.9c0,0.5-0.4,1-1,1h-8.7c-0.6,0-1-0.5-1-1V14.1c0-0.5,0.5-1,1-1h2.3c0.5,0,1.1,0.4,1.1,1v15.6
			c0,0.2,0.1,0.3,0.3,0.3h5c0.6,0,1,0.5,1,1.1V32.9z"/>
		<path class="st0" d="M74.7,32.8c0.1,0.6-0.4,1.1-1,1.1h-2.3c-0.5,0-0.9-0.3-1-1l-0.6-3c-0.1-0.2-0.2-0.4-0.3-0.4h-3.2
			c-0.2,0-0.4,0.1-0.4,0.4l-0.5,3c-0.1,0.7-0.5,1-1.1,1h-2.3c-0.6,0-1.1-0.5-1-1.1l3.8-18.7c0.1-0.7,0.5-1,1.1-1h3.7
			c0.6,0,0.9,0.3,1.1,1L74.7,32.8z M67.6,19.1l-1.1,6.1c0,0.2,0.1,0.3,0.2,0.3h1.7c0.2,0,0.3-0.1,0.3-0.3L67.6,19.1z"/>
		<path class="st0" d="M89.4,32.9c0,0.5-0.5,1-1.1,1h-2c-0.5,0-0.8-0.3-1.1-0.8L80.6,23v9.9c0,0.5-0.5,1-1.1,1h-2.1
			c-0.6,0-1-0.5-1-1V14.2c0-0.6,0.4-1,1-1h2.1c0.5,0,0.9,0.3,1.2,0.9l4.5,9.7v-9.5c0-0.6,0.5-1.1,1.1-1.1h2c0.6,0,1.1,0.5,1.1,1.1
			V32.9z"/>
		<path class="st0" d="M102.5,32.7c-1.2,1-2.7,1.5-4.5,1.5c-2.9,0-5-1.4-6.1-4.1c-0.4-0.9-0.6-1.5-0.6-1.8c0-0.5,0.4-0.8,1.1-1.1
			c0.5-0.2,1-0.3,1.6-0.4c0.1-0.1,0.3-0.1,0.4-0.1c0.4,0,0.8,0.3,1,1c0.5,1.1,0.7,1.6,0.8,1.7c0.4,0.6,1.1,0.9,1.8,0.9
			c1.3,0,2-0.6,2-1.8c0-0.8-0.7-1.8-2.1-3l-4-3.2c-1.4-1.4-2.1-2.8-2.1-4.2c0-1.7,0.6-3,1.8-4c1.1-0.9,2.4-1.4,4-1.4
			c1.5,0,2.8,0.5,3.9,1.4c1,0.9,1.7,2,2.2,3.4c0,0.1,0.1,0.2,0.1,0.4c0,0.4-0.3,0.8-0.9,1l-1.5,0.4c-0.1,0-0.2,0.1-0.3,0.1
			c-0.5,0-0.8-0.2-1-0.7c-0.7-1.6-1.5-2.4-2.4-2.4c-0.9,0-1.7,0.9-1.7,1.9c0,0.6,0.7,1.5,2.2,2.6c2.2,1.7,3.5,2.8,4.1,3.3
			c1.5,1.5,2.2,3,2.2,4.4C104.3,30.3,103.7,31.7,102.5,32.7z"/>
		<path class="st0" d="M117.2,32.8c0,0.5-0.5,1.1-1.1,1.1h-8.8c-0.6,0-1.1-0.5-1.1-1.1V14.2c0-0.6,0.5-1.1,1.1-1.1h8.5
			c0.6,0,1.1,0.5,1.1,1.1v1.8c0,0.5-0.5,1.1-1.1,1.1h-4.9c-0.3,0-0.4,0.1-0.4,0.3v3.4c0,0.2,0.1,0.3,0.4,0.3h3.7
			c0.6,0,1.1,0.5,1.1,1.1v1.7c0,0.5-0.5,1.1-1.1,1.1h-3.7c-0.3,0-0.4,0.1-0.4,0.4v4.2c0,0.2,0.1,0.4,0.4,0.4h5.2
			c0.6,0,1.1,0.5,1.1,1.1V32.8z"/>
		<path class="st0" d="M130.1,32.8c0,0.5-0.5,1.1-1.1,1.1h-8.8c-0.6,0-1.1-0.5-1.1-1.1V14.2c0-0.6,0.5-1.1,1.1-1.1h8.5
			c0.6,0,1.1,0.5,1.1,1.1v1.8c0,0.5-0.5,1.1-1.1,1.1h-4.9c-0.3,0-0.4,0.1-0.4,0.3v3.4c0,0.2,0.1,0.3,0.4,0.3h3.7
			c0.6,0,1.1,0.5,1.1,1.1v1.7c0,0.5-0.5,1.1-1.1,1.1h-3.7c-0.3,0-0.4,0.1-0.4,0.4v4.2c0,0.2,0.1,0.4,0.4,0.4h5.2
			c0.6,0,1.1,0.5,1.1,1.1V32.8z"/>
		<path class="st0" d="M144.6,32.8c0,0.1,0.1,0.2,0.1,0.3c0,0.4-0.4,0.8-0.9,0.8h-2.3c-0.5,0-0.8-0.3-1-0.9l-2.7-7.3
			c-0.1-0.2-0.1-0.3-0.2-0.3h-1.1c-0.2,0-0.3,0.1-0.3,0.3v7.2c0,0.5-0.5,1-1.1,1H133c-0.6,0-1-0.5-1-1V14.1c0-0.7,0.3-1,1-1h5.3
			c1.7,0,3.1,0.5,4.2,1.6c1.2,1,1.7,2.4,1.7,4v1c0,2.1-0.9,3.7-2.7,4.8L144.6,32.8z M140.2,18.5c0-0.9-0.8-1.6-1.8-1.6h-2
			c-0.2,0-0.2,0.1-0.2,0.3v4.2c0,0.2,0.1,0.3,0.3,0.3h2c1,0,1.8-0.7,1.8-1.6V18.5z"/>
	</g>
</g>
</svg>
