<svg xmlns="http://www.w3.org/2000/svg" viewBox="0 0 134.821 47.723"><defs><style>.a,.e{fill:#1a2842;}.b{fill:#3da2db;}.c{fill:#ed9210;}.d{fill:#1c2a44;}.e{font-size:26px;font-family:YWFTUltramagnetic-Bold, YWFT Ultramagnetic;font-weight:700;}</style></defs><g transform="translate(-11.179)"><g transform="translate(11.179 0)"><path class="a" d="M56.21,28.62c-.908,1.278-1.749,2.455-2.59,3.632-.437.605-.942,1.177-1.782.942a1.565,1.565,0,0,1-1.11-1.682c-.034-2.287-.067-4.607.034-6.894A8.994,8.994,0,0,1,53.217,19.4a4.188,4.188,0,0,0,.874-2.455A30.048,30.048,0,0,1,60.683.706c.74-.942,1.446-.942,2.152,0,3.7,4.876,6.188,10.224,6.592,16.412A2.644,2.644,0,0,0,70,18.968c2.421,2.59,3.094,5.717,2.825,9.181-.1,1.043,0,2.119-.034,3.195-.034.807-.2,1.581-1.11,1.85-.874.235-1.345-.336-1.782-.942-.841-1.177-1.682-2.354-2.59-3.632-1.009,1.177-1.177,2.859-2.791,3.632-.774.37.1,2.59,1.043,2.892a4.642,4.642,0,0,1,3.632,4.137c.1.908.4,1.143,1.244,1.345a6.241,6.241,0,0,1,4.91,5.314c.168,1.177-.2,1.816-1.513,1.782q-12.107-.05-24.214,0c-1.345,0-1.614-.639-1.48-1.782a6.092,6.092,0,0,1,4.876-5.314c.874-.2,1.143-.5,1.244-1.345a4.757,4.757,0,0,1,3.666-4.137c1.009-.3,1.816-2.69.975-3.027C57.253,31.478,57.219,29.83,56.21,28.62Z" transform="translate(-48.108 0)"/><path class="b" d="M83.153,8.539c.269-.673.538-.336.773.034,6.087,8.878,6.928,17.118,2.489,25.963-.168.336-.3.807-.773.774-1.581-.1-3.195.4-4.742-.235,2.018-.437,2.186-1.816,2.119-3.6a29.582,29.582,0,0,1,.135-6.457c.235-.639.841-.807,1.379-1.143,1.984-1.211,1.984-3.3.034-4.54-.5-.336-1.177-.437-1.412-1.11A58.212,58.212,0,0,1,83.153,8.539Z" transform="translate(-69.872 -5.411)"/><path class="b" d="M77.361,25.476v7.836c0,2.993.3,2.489-2.59,2.556C69.929,27.6,70.8,17.3,77.025,9.3c.639.673.3,1.48.3,2.22.034,2.623,0,5.213,0,7.836-.168.4-.572.5-.908.706-2.152,1.278-2.152,3.43,0,4.708C76.79,24.972,77.193,25.073,77.361,25.476Z" transform="translate(-63.743 -6.172)"/><path class="c" d="M67.466,95.6c.572,1.951.1,3.968.269,5.953.067.673-.2,1.614.874,1.682,1.211.1,1.11-.874,1.11-1.614,0-1.312.673-1.278,1.48-.74a2.839,2.839,0,0,1,1.379,3.3c-.37,1.379.1,1.883,1.513,1.749a4.085,4.085,0,0,1,4,1.951c.605.874.5,1.379-.74,1.345-4.776-.034-9.517,0-14.293,0-2.287,0-4.574-.067-6.861-.1.437-.807,1.244-.639,1.951-.673,2.253-.034,4.473-.034,6.726,0,1.278.034,1.816-.5,1.782-1.782-.1-2.758.269-5.482.2-8.206A3.455,3.455,0,0,1,67.466,95.6Z" transform="translate(-53.479 -63.449)"/><path class="c" d="M66.483,95.327c-.605,3.935-.3,7.9-.336,11.838,0,1.278-.437,1.581-1.648,1.581a78.855,78.855,0,0,0-9.349.135c-.538,0-.471-.3-.336-.639a4.074,4.074,0,0,1,4.137-2.522c1.513.067,2.119-.336,1.648-1.883a2.641,2.641,0,0,1,.706-2.623c.471-.5,1.009-1.009,1.715-.841.74.2.336.942.4,1.446.067.673.235,1.244,1.043,1.244.841,0,.975-.572.975-1.244V96.3C65.507,95.562,65.474,94.889,66.483,95.327Z" transform="translate(-52.495 -63.176)"/><path class="b" d="M62.872,64.7c1.009,2.859,1.951,5.751-1.345,7.769C60.787,68.837,61.258,66.146,62.872,64.7Z" transform="translate(-56.788 -42.941)"/><path class="b" d="M109.377,64.2c2.152,2.489,1.244,5.314,1.446,8.038C107.426,70.052,108.267,67.193,109.377,64.2Z" transform="translate(-88.125 -42.609)"/><path class="d" d="M82.759,45.321c-2.051-.572-2.959-1.513-2.959-3.06s.942-2.522,2.959-3.06c2.018.5,2.993,1.48,2.96,3.027C85.753,43.807,84.811,44.749,82.759,45.321Z" transform="translate(-69.142 -26.017)"/><path class="b" d="M86.608,45.4a.965.965,0,0,1,.975.908.942.942,0,0,1-1.883.067C85.7,45.837,86.07,45.535,86.608,45.4Z" transform="translate(-73.057 -30.132)"/></g><g transform="translate(48 4.912)"><text class="e" transform="translate(0 29)"><tspan x="0" y="0">LANSEER</tspan></text></g></g></svg>